HIERARCHY
ROOT SimulationBone
{
	OFFSET 0.000000 0.000000 0.000000
	CHANNELS 6 Xposition Yposition Zposition Zrotation Yrotation Xrotation 
	JOINT Hips
	{
		OFFSET 0.000000 0.000000 0.000000
		CHANNELS 6 Xposition Yposition Zposition Zrotation Yrotation Xrotation 
		JOINT RightUpLeg
		{
			OFFSET 0.103458 1.857831 10.548505
			CHANNELS 3 Zrotation Yrotation Xrotation
			JOINT RightLeg
			{
				OFFSET 43.500000 -0.000031 0.000002
				CHANNELS 3 Zrotation Yrotation Xrotation
				JOINT RightFoot
				{
					OFFSET 42.372200 0.000023 0.000003
					CHANNELS 3 Zrotation Yrotation Xrotation
					JOINT RightToe
					{
						OFFSET 17.299997 -0.000001 -0.000010
						CHANNELS 3 Zrotation Yrotation Xrotation
						End Site
						{
							OFFSET 0.000000 0.000000 0.000000
						}
					}
				}
			}
		}
		JOINT LeftUpLeg
		{
			OFFSET 0.103457 1.857828 -10.548510
			CHANNELS 3 Zrotation Yrotation Xrotation
			JOINT LeftLeg
			{
				OFFSET 43.500046 -0.000015 0.000002
				CHANNELS 3 Zrotation Yrotation Xrotation
				JOINT LeftFoot
				{
					OFFSET 42.372261 -0.000008 0.000023
					CHANNELS 3 Zrotation Yrotation Xrotation
					JOINT LeftToe
					{
						OFFSET 17.299990 -0.000007 -0.000002
						CHANNELS 3 Zrotation Yrotation Xrotation
						End Site
						{
							OFFSET 0.000000 0.000000 0.000000
						}
					}
				}
			}
		}
		JOINT Spine
		{
			OFFSET 6.901967 -2.603726 -0.000001
			CHANNELS 3 Zrotation Yrotation Xrotation
			JOINT Spine1
			{
				OFFSET 12.588100 -0.000009 -0.000003
				CHANNELS 3 Zrotation Yrotation Xrotation
				JOINT Spine2
				{
					OFFSET 12.343202 0.000008 0.000008
					CHANNELS 3 Zrotation Yrotation Xrotation
					JOINT Neck
					{
						OFFSET 25.832897 -0.000015 -0.000004
						CHANNELS 3 Zrotation Yrotation Xrotation
						JOINT Head
						{
							OFFSET 11.766609 0.000013 -0.000006
							CHANNELS 3 Zrotation Yrotation Xrotation
							End Site
							{
								OFFSET 0.000000 0.000000 0.000000
							}
						}
					}
					JOINT RightShoulder
					{
						OFFSET 19.745911 -1.480373 6.000098
						CHANNELS 3 Zrotation Yrotation Xrotation
						JOINT RightArm
						{
							OFFSET 11.284123 -0.000007 -0.000032
							CHANNELS 3 Zrotation Yrotation Xrotation
							JOINT RightForeArm
							{
								OFFSET 33.000050 0.000005 0.000031
								CHANNELS 3 Zrotation Yrotation Xrotation
								JOINT RightHand
								{
									OFFSET 25.200008 0.000017 0.000013
									CHANNELS 3 Zrotation Yrotation Xrotation
									End Site
									{
										OFFSET 0.000000 0.000000 0.000000
									}
								}
							}
						}
					}
					JOINT LeftShoulder
					{
						OFFSET 19.746092 -1.480379 -6.000077
						CHANNELS 3 Zrotation Yrotation Xrotation
						JOINT LeftArm
						{
							OFFSET 11.284136 -0.000017 -0.000017
							CHANNELS 3 Zrotation Yrotation Xrotation
							JOINT LeftForeArm
							{
								OFFSET 33.000099 0.000019 0.000015
								CHANNELS 3 Zrotation Yrotation Xrotation
								JOINT LeftHand
								{
									OFFSET 25.199780 0.000140 0.000408
									CHANNELS 3 Zrotation Yrotation Xrotation
									End Site
									{
										OFFSET 0.000000 0.000000 0.000000
									}
								}
							}
						}
					}
				}
			}
		}
	}
}
MOTION
Frames: 13
Frame Time: 0.016667
-146.415225 0.000000 158.942163 180.000000 89.541337 180.000000 -1.755071 88.276863 -0.239729 89.977692 0.735056 -178.987985 147.046786 2.885795 178.329873 -56.013322 0.569774 -8.673283 74.382009 5.519504 -2.366131 21.454563 0.003108 0.000018 -178.492227 -2.218005 -177.185489 -31.494466 1.661522 0.508076 82.215908 -1.068985 -2.803535 21.454545 -0.003081 -0.000002 7.417801 0.682420 0.731953 4.831787 1.333955 1.491635 4.513708 1.342805 1.483545 17.518146 1.148967 1.377209 -18.130283 -3.145266 2.668507 -160.845982 -69.715000 -21.110773 16.300613 55.455205 51.957561 -41.639643 -18.731174 1.773761 5.667017 -3.717448 15.089857 -167.775864 75.878991 13.985371 -19.420476 -57.639637 -23.593243 -46.509472 15.917129 -1.702025 10.843375 6.894858 -3.438176 
-146.562594 0.000000 156.364937 0.000000 89.328007 0.000000 -1.962887 89.058809 -0.263755 89.268149 0.150733 -178.747234 147.721412 3.388664 177.125346 -47.166090 0.656662 -7.849152 75.058007 5.085602 -1.775391 21.454560 0.003093 0.000016 -176.898505 -1.265371 -177.462803 -29.117119 1.810278 0.159290 78.779964 -0.781737 -2.252746 21.454548 -0.003080 -0.000003 7.185154 0.484743 0.779956 4.364074 0.940044 1.577519 4.046070 0.949438 1.571809 17.400071 0.603174 1.815828 -18.233167 -2.490864 2.882022 -160.903198 -69.603498 -21.053302 17.202390 54.470842 54.098877 -37.539096 -18.063020 1.632555 7.281650 -0.496424 15.563854 -169.150554 76.587802 12.580185 -20.973057 -58.512441 -22.020138 -50.819238 15.916472 -1.848421 9.893180 4.482327 -3.792040 
-146.693139 0.000000 153.872174 0.000000 88.340027 0.000000 -2.039467 89.579842 -0.220272 88.887876 -0.070042 -178.554768 148.686455 3.654009 177.356435 -39.179600 0.175801 -7.435925 75.214110 4.931882 -1.433421 21.454560 0.003092 0.000016 -175.380393 -0.843796 -178.220959 -27.584211 1.941600 0.164824 75.693774 -0.600753 -1.352324 21.454550 -0.003082 -0.000003 7.048632 0.360615 0.828177 4.089541 0.692109 1.668465 3.771567 0.702050 1.664252 16.721128 0.560945 1.993655 -17.875141 -2.838419 3.190915 -160.690335 -69.817931 -21.269994 18.137122 53.713968 55.906234 -34.225752 -17.068998 1.477913 8.300322 2.426594 16.741352 -171.005574 77.390724 10.688428 -22.510518 -59.402959 -20.331003 -55.212041 15.708095 -1.973148 8.364285 3.113617 -6.408089 
-146.808319 0.000000 151.458730 0.000000 87.488947 0.000000 -1.985784 89.862504 -0.149971 88.785770 -0.066984 -178.449453 149.811072 3.729885 178.252974 -32.397778 -0.565255 -7.418582 75.175508 4.990099 -1.301316 21.454560 0.003099 0.000017 -174.024295 -0.639331 -179.034986 -27.001145 2.057242 0.199813 73.108249 -0.325357 -0.259156 21.454549 -0.003086 -0.000002 6.975318 0.284179 0.869113 3.941983 0.539002 1.747293 3.624020 0.549406 1.744004 15.771493 0.696715 2.105186 -17.255143 -3.513698 3.543461 -160.451497 -70.184670 -21.511121 19.284346 52.998613 57.702569 -31.666813 -15.967286 1.347297 9.024522 5.213018 18.241104 -173.090337 78.184840 8.567380 -24.146490 -60.144282 -18.539000 -59.715635 15.213520 -2.095629 6.636649 2.427487 -10.582906 
-146.909596 0.000000 149.119460 0.000000 86.768997 0.000000 -1.805573 89.929337 -0.091491 88.903398 0.025344 -178.465177 150.953655 3.687695 179.044065 -27.195960 -1.296355 -7.695383 75.264032 5.186949 -1.343778 21.454560 0.003106 0.000017 -172.918000 -0.362301 -179.464067 -27.474681 2.171839 -0.060053 71.181977 0.218825 0.854754 21.454550 -0.003090 0.000000 6.932271 0.229625 0.895646 3.855142 0.429716 1.798348 3.537188 0.440421 1.795720 14.838405 0.687174 2.350405 -16.565280 -3.840127 3.895733 -160.447877 -70.531071 -21.509883 20.774171 52.125800 59.764734 -29.822111 -14.978866 1.251092 9.723956 8.029614 19.718293 -175.016179 78.876992 6.612370 -25.958877 -60.566776 -16.691889 -64.356603 14.349440 -2.220184 5.037670 2.122573 -15.625096 
-146.998430 0.000000 146.849222 0.000000 86.174271 0.000000 -1.513874 89.793060 -0.070942 89.188941 0.097334 -178.633422 152.002428 3.617935 179.144547 -23.857113 -1.817899 -8.133020 75.561432 5.492423 -1.402372 21.454558 0.003109 0.000017 -172.138205 0.181410 -179.250707 -29.080088 2.282694 -0.815137 69.985379 1.107499 1.839907 21.454551 -0.003093 0.000001 6.896109 0.175019 0.901428 3.781929 0.320910 1.808020 3.463991 0.331680 1.806053 14.122681 0.347736 2.863684 -15.921024 -3.433806 4.250748 -160.740354 -70.747545 -21.205496 22.614102 50.988232 62.251723 -28.633311 -14.278528 1.185902 10.576749 10.956772 20.944290 -176.389823 79.428328 5.221217 -28.003479 -60.571572 -14.806035 -69.118352 13.080400 -2.332022 3.766819 1.983864 -20.897725 
-147.076283 0.000000 144.642869 0.000000 85.698852 0.000000 -1.163924 89.427094 -0.069623 89.634945 0.124089 -178.981329 152.960733 3.571106 178.702938 -22.204588 -2.057912 -8.687388 75.197602 6.050801 -0.835408 21.454557 0.003111 0.000017 -171.715231 0.870299 -178.912352 -31.760218 2.359854 -1.768512 69.212778 2.099045 2.653507 21.454553 -0.003093 0.000001 6.881795 0.113787 0.882550 3.752265 0.199306 1.768284 3.434331 0.209846 1.767055 13.490603 0.032046 3.477871 -15.160421 -3.093771 4.731007 -160.501508 -70.978326 -21.448268 24.543859 49.903250 65.064626 -27.978472 -13.852527 1.144551 11.471456 13.743626 22.051940 -177.417606 79.975219 4.183713 -30.416314 -60.340621 -12.604983 -73.820970 11.576174 -2.412360 2.526682 1.803359 -25.979988 
-147.144614 0.000000 142.495259 0.000000 85.336880 0.000000 -0.817067 88.821545 -0.061626 90.218591 0.097924 -179.527646 153.784961 3.561237 177.986813 -22.071754 -2.011730 -9.329167 73.568380 6.982811 0.784771 21.454556 0.003115 0.000018 -171.713013 1.568027 -178.983314 -35.434290 2.367076 -2.596292 68.506393 2.982448 3.356283 21.454553 -0.003091 0.000001 6.900511 0.043497 0.838767 3.788607 0.059902 1.678504 3.470652 0.069901 1.678118 12.841236 0.097689 4.007320 -14.180635 -3.596236 5.420901 -159.045047 -71.360518 -22.941656 26.406617 49.167537 68.127636 -27.735686 -13.635886 1.126009 12.229852 16.120632 23.166375 -178.614844 80.595221 2.977204 -33.211605 -60.027085 -9.835097 -78.313916 9.985123 -2.479689 1.129543 1.346892 -30.581316 
-147.204884 0.000000 140.401247 0.000000 85.082601 0.000000 -0.532974 88.072571 -0.043887 90.808667 -0.010729 179.739362 154.135211 3.540409 177.005677 -23.772140 -1.826067 -9.930309 72.024036 7.999566 2.629208 21.454557 0.003114 0.000018 -172.329156 2.341516 -179.270432 -40.061801 2.193630 -3.362815 67.712227 3.944892 4.316323 21.454553 -0.003089 0.000000 6.909922 -0.037170 0.782273 3.806335 -0.099677 1.562935 3.488353 -0.090377 1.563511 12.502881 0.384961 4.524314 -13.349500 -4.416452 6.214234 -157.333024 -71.774405 -24.695228 28.345561 48.511756 71.340607 -27.836302 -13.548876 1.122541 12.674802 18.074508 24.099452 179.409139 80.978545 0.979519 -35.661711 -59.477347 -6.801664 -82.693045 8.163997 -2.554460 0.218996 0.496538 -34.774903 
-147.258555 0.000000 138.355689 0.000000 84.930382 0.000000 -0.332522 87.269650 -0.028224 91.340683 -0.241137 178.867865 153.787302 3.474506 175.823224 -27.522974 -1.710019 -10.401200 72.083215 8.673046 3.784118 21.454556 0.003104 0.000017 -173.627676 3.292806 -179.458225 -45.529007 1.726441 -4.198168 66.704131 5.199177 5.773910 21.454551 -0.003088 -0.000002 6.887079 -0.136450 0.721145 3.759482 -0.295908 1.437563 3.441483 -0.287358 1.439322 12.723774 0.658159 5.133995 -12.984535 -4.896020 7.008349 -156.530662 -72.068353 -25.514130 30.321036 47.585682 74.437971 -28.211263 -13.507277 1.126291 12.682069 19.639980 24.548017 176.805152 80.853007 -1.663085 -37.219447 -58.610762 -3.854351 -87.002195 6.050450 -2.614104 0.267242 -0.635870 -38.529579 
-147.307086 0.000000 136.353440 0.000000 84.874719 0.000000 -0.082223 86.369499 -0.064229 92.121586 -0.640359 178.020526 153.267108 3.502112 174.979311 -32.692047 -1.970270 -10.860441 74.139134 8.928109 4.024198 21.454557 0.003097 0.000016 -175.029308 4.477996 -179.439369 -51.377648 0.982122 -5.182030 65.184510 6.622040 7.168859 21.454550 -0.003091 -0.000002 6.940279 -0.290958 0.633951 3.864460 -0.602616 1.258000 3.546431 -0.595140 1.261612 13.019176 0.913403 5.780876 -12.796658 -5.196089 7.787967 -156.453910 -72.071606 -25.592934 31.593056 46.332597 76.838397 -28.735237 -13.424382 1.130809 12.385803 20.766760 24.090454 175.796883 80.541727 -2.692689 -38.919766 -57.727493 -0.860127 -90.854301 4.208239 -2.637307 0.181493 -1.516172 -40.941355 
-147.351939 0.000000 134.389356 0.000000 84.910229 0.000000 0.331422 85.352450 -0.181468 93.397408 -1.196569 177.349698 153.176622 3.729157 174.780386 -38.367301 -2.747264 -11.280614 77.998513 8.844021 3.445560 21.454557 0.003103 0.000018 -176.013896 5.843422 -179.229941 -57.121374 0.042944 -6.256128 63.127723 7.897665 7.824585 21.454551 -0.003098 0.000002 7.164285 -0.520698 0.506428 4.311308 -1.059668 0.993359 3.993207 -1.053783 0.999736 12.931980 1.197083 6.371796 -12.543799 -5.588303 8.533355 -156.673101 -71.698495 -25.375268 31.546667 44.930652 78.045814 -29.167159 -13.244012 1.127930 11.901253 21.427874 22.521061 177.750217 80.361959 -0.715027 -41.631956 -57.068742 2.277484 -93.885022 3.163294 -2.686348 -1.101402 -1.780909 -41.331896 
-147.394573 0.000000 132.458294 0.000000 85.031626 0.000000 0.787302 84.426048 -0.289293 94.796891 -1.678331 176.880770 153.685812 3.851295 174.134662 -43.318817 -3.335316 -11.106802 82.164791 8.414845 2.866311 21.454558 0.003110 0.000019 -176.962237 6.921199 -179.205381 -62.494536 -0.816927 -6.817639 61.916142 8.314217 7.474098 21.454551 -0.003101 0.000005 7.467322 -0.752529 0.385466 4.917293 -1.520598 0.738893 4.599105 -1.516244 0.748062 12.846018 1.477488 6.844180 -12.742503 -5.923649 9.164370 -157.359798 -71.278253 -24.677266 30.453326 44.007034 77.890376 -28.861079 -13.034089 1.108024 10.997261 21.812626 20.569381 -179.356287 79.940221 2.214440 -43.937544 -56.564455 5.027767 -96.227119 2.662006 -2.768040 -2.713851 -1.751428 -40.958386 
